<mxfile host="app.diagrams.net" modified="2024-02-01T12:53:49.320Z" agent="Mozilla/5.0 (Windows NT 10.0; Win64; x64) AppleWebKit/537.36 (KHTML, like Gecko) Chrome/121.0.0.0 Safari/537.36 Edg/121.0.0.0" etag="kmSIAVIYMAGL6eAxXaOl" version="23.1.0" type="device">
  <diagram name="Page-1" id="v8UeYEZOYNwBGfjtSWfb">
    <mxGraphModel dx="1949" dy="534" grid="1" gridSize="10" guides="1" tooltips="1" connect="1" arrows="1" fold="1" page="1" pageScale="1" pageWidth="850" pageHeight="1100" math="0" shadow="0">
      <root>
        <mxCell id="0" />
        <mxCell id="1" parent="0" />
        <mxCell id="SOwEXC-4IN14rf8NVUA4-1" value="Casino" style="swimlane;fontStyle=1;align=center;verticalAlign=top;childLayout=stackLayout;horizontal=1;startSize=26;horizontalStack=0;resizeParent=1;resizeParentMax=0;resizeLast=0;collapsible=1;marginBottom=0;whiteSpace=wrap;html=1;" parent="1" vertex="1">
          <mxGeometry x="-160" y="80" width="560" height="1090" as="geometry" />
        </mxCell>
        <mxCell id="SOwEXC-4IN14rf8NVUA4-2" value="- maxJogadores: int&amp;nbsp; &amp;nbsp; &amp;nbsp; &amp;nbsp; &amp;nbsp; &amp;nbsp; &lt;br&gt;- jogadoresNoCasino: int&amp;nbsp; &amp;nbsp; &amp;nbsp; - probabilidadeUser: int&amp;nbsp; &amp;nbsp; &amp;nbsp; &amp;nbsp; - totalCaixa: int&amp;nbsp; &amp;nbsp; &amp;nbsp; &amp;nbsp; &amp;nbsp; &amp;nbsp; &amp;nbsp; &amp;nbsp; &amp;nbsp;&lt;br style=&quot;border-color: var(--border-color); padding: 0px; margin: 0px;&quot;&gt;- totalDinheiroDado: int&amp;nbsp; &amp;nbsp; &amp;nbsp; &lt;br&gt;- horaAbertura: int&amp;nbsp; &amp;nbsp; &amp;nbsp; &amp;nbsp; &amp;nbsp; &amp;nbsp; &amp;nbsp;&lt;br&gt;- minutosAbertura: int&amp;nbsp; &amp;nbsp; &amp;nbsp; &amp;nbsp;&amp;nbsp;&lt;br&gt;- segundosAbertura: int&amp;nbsp; &amp;nbsp; &lt;br&gt;- horaFecho: int&amp;nbsp; &amp;nbsp; &amp;nbsp; &amp;nbsp; &amp;nbsp; &amp;nbsp; &amp;nbsp; &amp;nbsp; &lt;br&gt;- minutosFecho: int&amp;nbsp; &amp;nbsp; &amp;nbsp; &amp;nbsp; &amp;nbsp; &amp;nbsp;&amp;nbsp;&lt;br style=&quot;border-color: var(--border-color); padding: 0px; margin: 0px;&quot;&gt;- segundosFecho: int&amp;nbsp; &amp;nbsp; &amp;nbsp; &amp;nbsp; &lt;br&gt;- nome: string&amp;nbsp; &amp;nbsp; &amp;nbsp; &amp;nbsp; &amp;nbsp; &amp;nbsp; &amp;nbsp; &amp;nbsp; &amp;nbsp; &amp;nbsp; &lt;br&gt;- LM: list&amp;lt;Maquina*&amp;gt;&amp;nbsp; &amp;nbsp; &amp;nbsp; &amp;nbsp; &amp;nbsp;&amp;nbsp;&lt;br style=&quot;border-color: var(--border-color); padding: 0px; margin: 0px;&quot;&gt;- LU: list&amp;lt;User*&amp;gt;&amp;nbsp; &amp;nbsp;" style="text;strokeColor=none;fillColor=none;align=left;verticalAlign=top;spacingLeft=4;spacingRight=4;overflow=hidden;rotatable=0;points=[[0,0.5],[1,0.5]];portConstraint=eastwest;whiteSpace=wrap;html=1;" parent="SOwEXC-4IN14rf8NVUA4-1" vertex="1">
          <mxGeometry y="26" width="560" height="174" as="geometry" />
        </mxCell>
        <mxCell id="SOwEXC-4IN14rf8NVUA4-3" value="" style="line;strokeWidth=1;fillColor=none;align=left;verticalAlign=middle;spacingTop=-1;spacingLeft=3;spacingRight=3;rotatable=0;labelPosition=right;points=[];portConstraint=eastwest;strokeColor=inherit;" parent="SOwEXC-4IN14rf8NVUA4-1" vertex="1">
          <mxGeometry y="200" width="560" height="8" as="geometry" />
        </mxCell>
        <mxCell id="SOwEXC-4IN14rf8NVUA4-4" value="+ Casino(_nome: string)&amp;nbsp; &amp;nbsp; &amp;nbsp; &amp;nbsp; &amp;nbsp; &amp;nbsp;&lt;br style=&quot;border-color: var(--border-color); padding: 0px; margin: 0px;&quot;&gt;+ ~Casino()&amp;nbsp; &amp;nbsp; &amp;nbsp; &amp;nbsp; &amp;nbsp; &amp;nbsp; &amp;nbsp; &amp;nbsp; &amp;nbsp; &amp;nbsp; &amp;nbsp; &amp;nbsp;&lt;br style=&quot;border-color: var(--border-color); padding: 0px; margin: 0px;&quot;&gt;+ Run()&amp;nbsp; &amp;nbsp; &amp;nbsp; &amp;nbsp; &amp;nbsp; &amp;nbsp; &amp;nbsp; &amp;nbsp; &amp;nbsp; &amp;nbsp; &amp;nbsp; &amp;nbsp; &amp;nbsp; &amp;nbsp;&lt;br style=&quot;border-color: var(--border-color); padding: 0px; margin: 0px;&quot;&gt;+ CarregarDados(int _maxJogadores, int _probabilidadeUser,int _horaAbertura, int _minutosAbertura, int _segundosAbertura,int _horaFecho, int _minutosFecho, int _segundosFecho)&amp;nbsp; &amp;nbsp; &amp;nbsp; &amp;nbsp; &amp;nbsp; &amp;nbsp; &amp;nbsp;&amp;nbsp;&lt;br style=&quot;border-color: var(--border-color); padding: 0px; margin: 0px;&quot;&gt;+ Load(const string&amp;amp; xmlFile)&amp;nbsp; &amp;nbsp; &amp;nbsp; &amp;nbsp; &amp;nbsp; &amp;nbsp; &amp;nbsp; &amp;nbsp; &amp;nbsp; &amp;nbsp; &amp;nbsp; &amp;nbsp;&lt;br style=&quot;border-color: var(--border-color); padding: 0px; margin: 0px;&quot;&gt;+ LoadMaquina(const string&amp;amp; xmlFile)&amp;nbsp; &amp;nbsp; &amp;nbsp; &amp;nbsp; &amp;nbsp; &amp;nbsp; &amp;nbsp; &amp;nbsp;&amp;nbsp;&lt;br style=&quot;border-color: var(--border-color); padding: 0px; margin: 0px;&quot;&gt;+ Add(ut: User*): bool&amp;nbsp; &amp;nbsp; &amp;nbsp; &amp;nbsp; &amp;nbsp; &amp;nbsp;&amp;nbsp;&lt;br style=&quot;border-color: var(--border-color); padding: 0px; margin: 0px;&quot;&gt;+ Add(M: Maquina*): bool&amp;nbsp; &amp;nbsp; &amp;nbsp; &amp;nbsp; &amp;nbsp;&amp;nbsp;&lt;br style=&quot;border-color: var(--border-color); padding: 0px; margin: 0px;&quot;&gt;+ Listar(f: ostream&amp;amp;): void&amp;nbsp; &amp;nbsp; &amp;nbsp; &amp;nbsp;&lt;br style=&quot;border-color: var(--border-color); padding: 0px; margin: 0px;&quot;&gt;+ Desligar(id_maq: int): void&amp;nbsp; &amp;nbsp; &amp;nbsp;&lt;br style=&quot;border-color: var(--border-color); padding: 0px; margin: 0px;&quot;&gt;+ Get_Estado(id_maq: int): estadoMaquina&amp;nbsp;&lt;br style=&quot;border-color: var(--border-color); padding: 0px; margin: 0px;&quot;&gt;+ Memoria_Total(): int&amp;nbsp; &amp;nbsp; &amp;nbsp; &amp;nbsp; &amp;nbsp; &amp;nbsp;&amp;nbsp;&lt;br style=&quot;border-color: var(--border-color); padding: 0px; margin: 0px;&quot;&gt;+ Listar_Tipo(Tipo: string, f: ostream&amp;amp; = cout): list&amp;lt;Maquina*&amp;gt;*&amp;nbsp;&lt;br style=&quot;border-color: var(--border-color); padding: 0px; margin: 0px;&quot;&gt;+ Ranking_Dos_Fracos(): list&amp;lt;string&amp;gt;*&amp;nbsp;&lt;br style=&quot;border-color: var(--border-color); padding: 0px; margin: 0px;&quot;&gt;+ Ranking_Das_Mais_Trabalhadores(): list&amp;lt;Maquina*&amp;gt;*&amp;nbsp;&lt;br style=&quot;border-color: var(--border-color); padding: 0px; margin: 0px;&quot;&gt;+ Jogadores_Mais_Frequentes(): list&amp;lt;User*&amp;gt;*&amp;nbsp;&lt;br style=&quot;border-color: var(--border-color); padding: 0px; margin: 0px;&quot;&gt;+ Jogadores_Mais_Ganhos(): list&amp;lt;User*&amp;gt;*&amp;nbsp;&lt;br style=&quot;border-color: var(--border-color); padding: 0px; margin: 0px;&quot;&gt;+ Relatorio(fich_xml: string): void&amp;nbsp;&lt;br style=&quot;border-color: var(--border-color); padding: 0px; margin: 0px;&quot;&gt;+ SubirProbabilidadeVizinhas(M_ganhou: Maquina*, R: float, lmvizinhas: list&amp;lt;Maquina*&amp;gt;&amp;amp;): void&amp;nbsp;&lt;br style=&quot;border-color: var(--border-color); padding: 0px; margin: 0px;&quot;&gt;+ Listar(X: float, f: ostream&amp;amp; = cout): void&amp;nbsp;&lt;br style=&quot;border-color: var(--border-color); padding: 0px; margin: 0px;&quot;&gt;+ getJogadoresNoCasino(): int&amp;nbsp; &amp;nbsp; &amp;nbsp;&lt;br style=&quot;border-color: var(--border-color); padding: 0px; margin: 0px;&quot;&gt;+ getTotalCaixa(): int&amp;nbsp; &amp;nbsp; &amp;nbsp; &amp;nbsp; &amp;nbsp; &amp;nbsp;&amp;nbsp;&lt;br style=&quot;border-color: var(--border-color); padding: 0px; margin: 0px;&quot;&gt;+ getTotalDinheiroDado(): int&amp;nbsp; &amp;nbsp; &amp;nbsp;&lt;br style=&quot;border-color: var(--border-color); padding: 0px; margin: 0px;&quot;&gt;+ setJogadoresNoCasino(jogadores: int): void&amp;nbsp;&lt;br style=&quot;border-color: var(--border-color); padding: 0px; margin: 0px;&quot;&gt;+ setTotalCaixa(totalCaixa: int): void&amp;nbsp;&lt;br style=&quot;border-color: var(--border-color); padding: 0px; margin: 0px;&quot;&gt;+ setTotalDinheiroDado(totalDinheiroDado: int): void&amp;nbsp;&lt;br&gt;- Menu()&amp;nbsp; &amp;nbsp; &amp;nbsp; &amp;nbsp; &amp;nbsp; &amp;nbsp; &amp;nbsp; &amp;nbsp; &amp;nbsp; &amp;nbsp; &amp;nbsp; &amp;nbsp; &amp;nbsp;&amp;nbsp;&lt;br style=&quot;border-color: var(--border-color); padding: 0px; margin: 0px;&quot;&gt;- gestaoCasino()&amp;nbsp; &amp;nbsp; &amp;nbsp; &amp;nbsp; &amp;nbsp; &amp;nbsp; &amp;nbsp; &amp;nbsp; &amp;nbsp;&amp;nbsp;&lt;br style=&quot;border-color: var(--border-color); padding: 0px; margin: 0px;&quot;&gt;- gestaoMaquinas()&amp;nbsp; &amp;nbsp; &amp;nbsp; &amp;nbsp; &amp;nbsp; &amp;nbsp; &amp;nbsp; &amp;nbsp;&amp;nbsp;&lt;br style=&quot;border-color: var(--border-color); padding: 0px; margin: 0px;&quot;&gt;- menuCrudMaquina()&amp;nbsp; &amp;nbsp; &amp;nbsp; &amp;nbsp; &amp;nbsp; &amp;nbsp; &amp;nbsp; &amp;nbsp;&lt;br style=&quot;border-color: var(--border-color); padding: 0px; margin: 0px;&quot;&gt;- gestaoUseres()&amp;nbsp; &amp;nbsp; &amp;nbsp; &amp;nbsp; &amp;nbsp; &amp;nbsp; &amp;nbsp; &amp;nbsp; &amp;nbsp;&amp;nbsp;&lt;br style=&quot;border-color: var(--border-color); padding: 0px; margin: 0px;&quot;&gt;- addMaquina()&amp;nbsp; &amp;nbsp; &amp;nbsp; &amp;nbsp; &amp;nbsp; &amp;nbsp; &amp;nbsp; &amp;nbsp; &amp;nbsp; &amp;nbsp;&amp;nbsp;&lt;br style=&quot;border-color: var(--border-color); padding: 0px; margin: 0px;&quot;&gt;- removerMaquina(id_maq: int): bool&amp;nbsp;&lt;br style=&quot;border-color: var(--border-color); padding: 0px; margin: 0px;&quot;&gt;- editarMaquina(id_maq: int): bool&lt;br style=&quot;border-color: var(--border-color); padding: 0px; margin: 0px;&quot;&gt;- moverMaquina(id_maq: int): bool&amp;nbsp;&lt;br style=&quot;border-color: var(--border-color); padding: 0px; margin: 0px;&quot;&gt;- dadosCasino(): void&amp;nbsp; &amp;nbsp; &amp;nbsp; &amp;nbsp; &amp;nbsp; &amp;nbsp; &amp;nbsp;&lt;br style=&quot;border-color: var(--border-color); padding: 0px; margin: 0px;&quot;&gt;- entrarJogador(): bool&amp;nbsp; &amp;nbsp; &amp;nbsp; &amp;nbsp; &amp;nbsp; &amp;nbsp;&lt;br style=&quot;border-color: var(--border-color); padding: 0px; margin: 0px;&quot;&gt;- ListarMaquinas(): void&amp;nbsp; &amp;nbsp; &amp;nbsp; &amp;nbsp; &amp;nbsp;&amp;nbsp;&lt;br style=&quot;border-color: var(--border-color); padding: 0px; margin: 0px;&quot;&gt;- devolveData(): string&amp;nbsp; &amp;nbsp; &amp;nbsp; &amp;nbsp; &amp;nbsp; &amp;nbsp;&lt;br style=&quot;border-color: var(--border-color); padding: 0px; margin: 0px;&quot;&gt;- removerVizinho(id_maq: int): void&amp;nbsp;&lt;br style=&quot;border-color: var(--border-color); padding: 0px; margin: 0px;&quot;&gt;- adicionarVizinho(M: Maquina*): bool&amp;nbsp;&lt;br style=&quot;border-color: var(--border-color); padding: 0px; margin: 0px;&quot;&gt;- mostrarMaquinasAfetadas(maquinasAfetadas: list&amp;lt;Maquina*&amp;gt;&amp;amp;): void&amp;nbsp;&lt;br style=&quot;border-color: var(--border-color); padding: 0px; margin: 0px;&quot;&gt;- listarRankingMaisTrabalhadores(): void&amp;nbsp;&lt;br style=&quot;border-color: var(--border-color); padding: 0px; margin: 0px;&quot;&gt;- compararNjogos(maquina1: Maquina*, maquina2: Maquina*): bool&amp;nbsp;&lt;br style=&quot;border-color: var(--border-color); padding: 0px; margin: 0px;&quot;&gt;- listarJogadoresMaisFrequentes(): void&amp;nbsp;&lt;br style=&quot;border-color: var(--border-color); padding: 0px; margin: 0px;&quot;&gt;- listarJogadoresMaisGanhos(): void&amp;nbsp;&lt;br style=&quot;border-color: var(--border-color); padding: 0px; margin: 0px;&quot;&gt;- desligarTodasMaquinas(): void&amp;nbsp; &amp;nbsp;&lt;br style=&quot;border-color: var(--border-color); padding: 0px; margin: 0px;&quot;&gt;- ligarTodasMaquinas(): void&amp;nbsp; &amp;nbsp; &amp;nbsp;&amp;nbsp;&lt;br style=&quot;border-color: var(--border-color); padding: 0px; margin: 0px;&quot;&gt;- maquinaAvariada(): void&amp;nbsp; &amp;nbsp; &amp;nbsp; &amp;nbsp; &amp;nbsp;&lt;br style=&quot;border-color: var(--border-color); padding: 0px; margin: 0px;&quot;&gt;- mostrarMaquinas(): bool&amp;nbsp; &amp;nbsp; &amp;nbsp; &amp;nbsp; &amp;nbsp;&lt;br style=&quot;border-color: var(--border-color); padding: 0px; margin: 0px;&quot;&gt;- maquinaGanhos(): void&amp;nbsp; &amp;nbsp; &amp;nbsp; &amp;nbsp; &amp;nbsp; &amp;nbsp;&lt;br style=&quot;border-color: var(--border-color); padding: 0px; margin: 0px;&quot;&gt;- reparar(id_maq: int): void&amp;nbsp; &amp;nbsp; &amp;nbsp;&amp;nbsp;&lt;br style=&quot;border-color: var(--border-color); padding: 0px; margin: 0px;&quot;&gt;- registarMaquina(): void&amp;nbsp; &amp;nbsp; &amp;nbsp; &amp;nbsp; &amp;nbsp;&lt;br style=&quot;border-color: var(--border-color); padding: 0px; margin: 0px;&quot;&gt;- estadoString(estadoma: estadoMaquina): string&amp;nbsp;&lt;br style=&quot;border-color: var(--border-color); padding: 0px; margin: 0px;&quot;&gt;- ListarMaquinasProbabilidade(): void&amp;nbsp;&lt;br style=&quot;border-color: var(--border-color); padding: 0px; margin: 0px;&quot;&gt;- avariar(nMaq: int): void&amp;nbsp; &amp;nbsp; &amp;nbsp; &amp;nbsp; &amp;nbsp;&lt;br style=&quot;border-color: var(--border-color); padding: 0px; margin: 0px;&quot;&gt;- showRankingAvarias(): void&amp;nbsp; &amp;nbsp; &amp;nbsp; &amp;nbsp;&lt;br style=&quot;border-color: var(--border-color); padding: 0px; margin: 0px;&quot;&gt;- listarTipoMaquina(): void&amp;nbsp; &amp;nbsp; &amp;nbsp; &amp;nbsp;&amp;nbsp;&lt;br style=&quot;border-color: var(--border-color); padding: 0px; margin: 0px;&quot;&gt;- userEntraCasino(nomeArquivo: const string&amp;amp;): User*&amp;nbsp;&lt;br style=&quot;border-color: var(--border-color); padding: 0px; margin: 0px;&quot;&gt;- ContarLinhas(nomeArquivo: const string&amp;amp;): int&amp;nbsp;&lt;br style=&quot;border-color: var(--border-color); padding: 0px; margin: 0px;&quot;&gt;- getNome(): string" style="text;strokeColor=none;fillColor=none;align=left;verticalAlign=top;spacingLeft=4;spacingRight=4;overflow=hidden;rotatable=0;points=[[0,0.5],[1,0.5]];portConstraint=eastwest;whiteSpace=wrap;html=1;" parent="SOwEXC-4IN14rf8NVUA4-1" vertex="1">
          <mxGeometry y="208" width="560" height="882" as="geometry" />
        </mxCell>
        <mxCell id="v8InRVTzaZ4bghWR876y-48" style="edgeStyle=orthogonalEdgeStyle;rounded=0;orthogonalLoop=1;jettySize=auto;html=1;exitX=0.5;exitY=0;exitDx=0;exitDy=0;entryX=0.5;entryY=0;entryDx=0;entryDy=0;endArrow=none;endFill=0;startArrow=open;startFill=0;startSize=15;" edge="1" parent="1" source="SOwEXC-4IN14rf8NVUA4-5" target="SOwEXC-4IN14rf8NVUA4-1">
          <mxGeometry relative="1" as="geometry" />
        </mxCell>
        <mxCell id="v8InRVTzaZ4bghWR876y-57" value="&lt;font style=&quot;font-size: 15px;&quot;&gt;N&lt;/font&gt;" style="edgeLabel;html=1;align=center;verticalAlign=middle;resizable=0;points=[];" vertex="1" connectable="0" parent="v8InRVTzaZ4bghWR876y-48">
          <mxGeometry x="-0.8172" y="-1" relative="1" as="geometry">
            <mxPoint as="offset" />
          </mxGeometry>
        </mxCell>
        <mxCell id="v8InRVTzaZ4bghWR876y-58" value="&lt;font style=&quot;font-size: 15px;&quot;&gt;1&lt;/font&gt;" style="edgeLabel;html=1;align=center;verticalAlign=middle;resizable=0;points=[];" vertex="1" connectable="0" parent="v8InRVTzaZ4bghWR876y-48">
          <mxGeometry x="0.8276" relative="1" as="geometry">
            <mxPoint as="offset" />
          </mxGeometry>
        </mxCell>
        <mxCell id="SOwEXC-4IN14rf8NVUA4-5" value="User" style="swimlane;fontStyle=1;align=center;verticalAlign=top;childLayout=stackLayout;horizontal=1;startSize=26;horizontalStack=0;resizeParent=1;resizeParentMax=0;resizeLast=0;collapsible=1;marginBottom=0;whiteSpace=wrap;html=1;" parent="1" vertex="1">
          <mxGeometry x="-560" y="80" width="320" height="600" as="geometry" />
        </mxCell>
        <mxCell id="SOwEXC-4IN14rf8NVUA4-6" value="- nUser: int&amp;nbsp; &amp;nbsp; &amp;nbsp; &amp;nbsp; &amp;nbsp; &amp;nbsp; &amp;nbsp; &amp;nbsp; &amp;nbsp; &amp;nbsp; &amp;nbsp;&amp;nbsp;&lt;br style=&quot;border-color: var(--border-color); padding: 0px; margin: 0px;&quot;&gt;- idade: int&amp;nbsp; &amp;nbsp; &amp;nbsp; &amp;nbsp; &amp;nbsp; &amp;nbsp; &amp;nbsp; &amp;nbsp; &amp;nbsp; &amp;nbsp; &amp;nbsp;&amp;nbsp;&lt;br style=&quot;border-color: var(--border-color); padding: 0px; margin: 0px;&quot;&gt;- jogadas: int&amp;nbsp; &amp;nbsp; &amp;nbsp; &amp;nbsp; &amp;nbsp; &amp;nbsp; &amp;nbsp; &amp;nbsp; &amp;nbsp; &amp;nbsp;&amp;nbsp;&lt;br style=&quot;border-color: var(--border-color); padding: 0px; margin: 0px;&quot;&gt;- carteira: float&amp;nbsp; &amp;nbsp; &amp;nbsp; &amp;nbsp; &amp;nbsp; &amp;nbsp; &amp;nbsp; &amp;nbsp; &amp;nbsp;&lt;br style=&quot;border-color: var(--border-color); padding: 0px; margin: 0px;&quot;&gt;- ganhos: float&amp;nbsp; &amp;nbsp; &amp;nbsp; &amp;nbsp; &amp;nbsp; &amp;nbsp; &amp;nbsp; &amp;nbsp; &amp;nbsp; &amp;nbsp;&lt;br style=&quot;border-color: var(--border-color); padding: 0px; margin: 0px;&quot;&gt;- nome: string&amp;nbsp; &amp;nbsp; &amp;nbsp; &amp;nbsp; &amp;nbsp; &amp;nbsp; &amp;nbsp; &amp;nbsp; &amp;nbsp; &amp;nbsp;&amp;nbsp;&lt;br style=&quot;border-color: var(--border-color); padding: 0px; margin: 0px;&quot;&gt;- morada: string&amp;nbsp; &amp;nbsp; &amp;nbsp; &amp;nbsp; &amp;nbsp; &amp;nbsp; &amp;nbsp; &amp;nbsp; &amp;nbsp;&amp;nbsp;&lt;br style=&quot;border-color: var(--border-color); padding: 0px; margin: 0px;&quot;&gt;- aJogar: bool&amp;nbsp; &amp;nbsp; &amp;nbsp; &amp;nbsp; &amp;nbsp; &amp;nbsp; &amp;nbsp; &amp;nbsp; &amp;nbsp; &amp;nbsp;&amp;nbsp;&lt;br style=&quot;border-color: var(--border-color); padding: 0px; margin: 0px;&quot;&gt;- horaEntrada: time_t&amp;nbsp; &amp;nbsp; &amp;nbsp; &amp;nbsp; &amp;nbsp; &amp;nbsp; &amp;nbsp;&lt;br style=&quot;border-color: var(--border-color); padding: 0px; margin: 0px;&quot;&gt;- horaSaida: time_t&amp;nbsp; &amp;nbsp; &amp;nbsp; &amp;nbsp; &amp;nbsp; &amp;nbsp; &amp;nbsp; &amp;nbsp;&lt;br style=&quot;border-color: var(--border-color); padding: 0px; margin: 0px;&quot;&gt;- tempoCasino: time_t&amp;nbsp; &amp;nbsp; &amp;nbsp; &amp;nbsp; &amp;nbsp; &amp;nbsp; &amp;nbsp;&lt;br style=&quot;border-color: var(--border-color); padding: 0px; margin: 0px;&quot;&gt;- maquinaAssociada: Maquina*&amp;nbsp; &amp;nbsp; &amp;nbsp;&amp;nbsp;&lt;br style=&quot;border-color: var(--border-color); padding: 0px; margin: 0px;&quot;&gt;- casino: Casino*&amp;nbsp;" style="text;strokeColor=none;fillColor=none;align=left;verticalAlign=top;spacingLeft=4;spacingRight=4;overflow=hidden;rotatable=0;points=[[0,0.5],[1,0.5]];portConstraint=eastwest;whiteSpace=wrap;html=1;" parent="SOwEXC-4IN14rf8NVUA4-5" vertex="1">
          <mxGeometry y="26" width="320" height="194" as="geometry" />
        </mxCell>
        <mxCell id="SOwEXC-4IN14rf8NVUA4-7" value="" style="line;strokeWidth=1;fillColor=none;align=left;verticalAlign=middle;spacingTop=-1;spacingLeft=3;spacingRight=3;rotatable=0;labelPosition=right;points=[];portConstraint=eastwest;strokeColor=inherit;" parent="SOwEXC-4IN14rf8NVUA4-5" vertex="1">
          <mxGeometry y="220" width="320" height="8" as="geometry" />
        </mxCell>
        <mxCell id="SOwEXC-4IN14rf8NVUA4-8" value="+ User(_nUser: int, _nome: string, _morada: string, _idade: int, _casino: Casino*)&amp;nbsp;&lt;br style=&quot;border-color: var(--border-color); padding: 0px; margin: 0px;&quot;&gt;+ ~User()&amp;nbsp; &amp;nbsp; &amp;nbsp; &amp;nbsp; &amp;nbsp; &amp;nbsp; &amp;nbsp; &amp;nbsp; &amp;nbsp; &amp;nbsp; &amp;nbsp; &amp;nbsp; &amp;nbsp;&lt;br style=&quot;border-color: var(--border-color); padding: 0px; margin: 0px;&quot;&gt;+ Run()&amp;nbsp; &amp;nbsp; &amp;nbsp; &amp;nbsp; &amp;nbsp; &amp;nbsp; &amp;nbsp; &amp;nbsp; &amp;nbsp; &amp;nbsp; &amp;nbsp; &amp;nbsp; &amp;nbsp; &amp;nbsp;&lt;br style=&quot;border-color: var(--border-color); padding: 0px; margin: 0px;&quot;&gt;+ associarMaquina(maquina: Maquina*): void&amp;nbsp;&lt;br style=&quot;border-color: var(--border-color); padding: 0px; margin: 0px;&quot;&gt;+ entrarFilaEspera(maquina: Maquina*): void&amp;nbsp;&lt;br style=&quot;border-color: var(--border-color); padding: 0px; margin: 0px;&quot;&gt;+ userSaiCasino(): void&amp;nbsp; &amp;nbsp; &amp;nbsp; &amp;nbsp; &amp;nbsp; &amp;nbsp;&lt;br style=&quot;border-color: var(--border-color); padding: 0px; margin: 0px;&quot;&gt;+ Memoria(): int&amp;nbsp; &amp;nbsp; &amp;nbsp; &amp;nbsp; &amp;nbsp; &amp;nbsp; &amp;nbsp; &amp;nbsp; &amp;nbsp;&amp;nbsp;&lt;br style=&quot;border-color: var(--border-color); padding: 0px; margin: 0px;&quot;&gt;+ mostrarDados(): void&amp;nbsp; &amp;nbsp; &amp;nbsp; &amp;nbsp; &amp;nbsp; &amp;nbsp;&amp;nbsp;&lt;br style=&quot;border-color: var(--border-color); padding: 0px; margin: 0px;&quot;&gt;+ getNUser(): int&amp;nbsp; &amp;nbsp; &amp;nbsp; &amp;nbsp; &amp;nbsp; &amp;nbsp; &amp;nbsp; &amp;nbsp; &amp;nbsp;&lt;br style=&quot;border-color: var(--border-color); padding: 0px; margin: 0px;&quot;&gt;+ getJogadas(): int&amp;nbsp; &amp;nbsp; &amp;nbsp; &amp;nbsp; &amp;nbsp; &amp;nbsp; &amp;nbsp; &amp;nbsp;&lt;br style=&quot;border-color: var(--border-color); padding: 0px; margin: 0px;&quot;&gt;+ getCarteira(): float&amp;nbsp; &amp;nbsp; &amp;nbsp; &amp;nbsp; &amp;nbsp; &amp;nbsp;&amp;nbsp;&lt;br style=&quot;border-color: var(--border-color); padding: 0px; margin: 0px;&quot;&gt;+ getGanhos(): float&amp;nbsp; &amp;nbsp; &amp;nbsp; &amp;nbsp; &amp;nbsp; &amp;nbsp; &amp;nbsp;&amp;nbsp;&lt;br style=&quot;border-color: var(--border-color); padding: 0px; margin: 0px;&quot;&gt;+ getNome(): string&amp;nbsp; &amp;nbsp; &amp;nbsp; &amp;nbsp; &amp;nbsp; &amp;nbsp; &amp;nbsp; &amp;nbsp;&lt;br style=&quot;border-color: var(--border-color); padding: 0px; margin: 0px;&quot;&gt;+ getAJogar(): bool&amp;nbsp; &amp;nbsp; &amp;nbsp; &amp;nbsp; &amp;nbsp; &amp;nbsp; &amp;nbsp; &amp;nbsp;&lt;br style=&quot;border-color: var(--border-color); padding: 0px; margin: 0px;&quot;&gt;+ getMaquinaAssociada(): Maquina*&amp;nbsp;&lt;br style=&quot;border-color: var(--border-color); padding: 0px; margin: 0px;&quot;&gt;+ getTempoCasino(): time_t&amp;nbsp; &amp;nbsp; &amp;nbsp; &amp;nbsp;&amp;nbsp;&lt;br style=&quot;border-color: var(--border-color); padding: 0px; margin: 0px;&quot;&gt;+ setNUser(_nUser: int): void&amp;nbsp; &amp;nbsp; &amp;nbsp;&amp;nbsp;&lt;br style=&quot;border-color: var(--border-color); padding: 0px; margin: 0px;&quot;&gt;+ setJogadas(_jogadas: int): void&amp;nbsp;&lt;br style=&quot;border-color: var(--border-color); padding: 0px; margin: 0px;&quot;&gt;+ setCarteira(_carteira: float): void&amp;nbsp;&lt;br style=&quot;border-color: var(--border-color); padding: 0px; margin: 0px;&quot;&gt;+ setGanhos(_ganhos: float): void&amp;nbsp;&lt;br style=&quot;border-color: var(--border-color); padding: 0px; margin: 0px;&quot;&gt;+ setNome(_nome: string): void&amp;nbsp; &amp;nbsp; &amp;nbsp;&lt;br style=&quot;border-color: var(--border-color); padding: 0px; margin: 0px;&quot;&gt;+ setAJogar(_aJogar: bool): void&amp;nbsp;&amp;nbsp;&lt;br style=&quot;border-color: var(--border-color); padding: 0px; margin: 0px;&quot;&gt;+ setMaquinaAssociada(maquina: Maquina*): void&amp;nbsp;&lt;br&gt;- jogarNaMaquina(): void&amp;nbsp;" style="text;strokeColor=none;fillColor=none;align=left;verticalAlign=top;spacingLeft=4;spacingRight=4;overflow=hidden;rotatable=0;points=[[0,0.5],[1,0.5]];portConstraint=eastwest;whiteSpace=wrap;html=1;" parent="SOwEXC-4IN14rf8NVUA4-5" vertex="1">
          <mxGeometry y="228" width="320" height="372" as="geometry" />
        </mxCell>
        <mxCell id="v8InRVTzaZ4bghWR876y-50" style="edgeStyle=orthogonalEdgeStyle;rounded=0;orthogonalLoop=1;jettySize=auto;html=1;exitX=0.25;exitY=0;exitDx=0;exitDy=0;entryX=0.25;entryY=0;entryDx=0;entryDy=0;endArrow=open;endFill=0;endSize=15;" edge="1" parent="1" source="SOwEXC-4IN14rf8NVUA4-13" target="SOwEXC-4IN14rf8NVUA4-5">
          <mxGeometry relative="1" as="geometry">
            <Array as="points">
              <mxPoint x="570" y="30" />
              <mxPoint x="-480" y="30" />
            </Array>
          </mxGeometry>
        </mxCell>
        <mxCell id="v8InRVTzaZ4bghWR876y-60" value="&lt;font style=&quot;font-size: 15px;&quot;&gt;N&lt;/font&gt;" style="edgeLabel;html=1;align=center;verticalAlign=middle;resizable=0;points=[];" vertex="1" connectable="0" parent="v8InRVTzaZ4bghWR876y-50">
          <mxGeometry x="0.8678" y="-1" relative="1" as="geometry">
            <mxPoint as="offset" />
          </mxGeometry>
        </mxCell>
        <mxCell id="v8InRVTzaZ4bghWR876y-61" value="&lt;font style=&quot;font-size: 15px;&quot;&gt;1&lt;/font&gt;" style="edgeLabel;html=1;align=center;verticalAlign=middle;resizable=0;points=[];" vertex="1" connectable="0" parent="v8InRVTzaZ4bghWR876y-50">
          <mxGeometry x="-0.8643" y="1" relative="1" as="geometry">
            <mxPoint as="offset" />
          </mxGeometry>
        </mxCell>
        <mxCell id="SOwEXC-4IN14rf8NVUA4-13" value="Maquina" style="swimlane;fontStyle=1;align=center;verticalAlign=top;childLayout=stackLayout;horizontal=1;startSize=26;horizontalStack=0;resizeParent=1;resizeParentMax=0;resizeLast=0;collapsible=1;marginBottom=0;whiteSpace=wrap;html=1;" parent="1" vertex="1">
          <mxGeometry x="480" y="80" width="360" height="1010" as="geometry" />
        </mxCell>
        <mxCell id="v8InRVTzaZ4bghWR876y-22" value="&lt;p style=&quot;line-height: 100%;&quot;&gt;&lt;font style=&quot;font-size: 12px;&quot;&gt;- idMaquina: int&lt;br&gt;- x: int&lt;br&gt;- y: int&lt;br&gt;- aposta: int&lt;br&gt;- nAvarias: int&lt;br&gt;- nJogos: int&lt;br&gt;- premio: float&lt;br&gt;- prob: float&lt;br&gt;- temperaturaSensor: float&lt;br&gt;- nome: string&lt;br&gt;- tipo: string&lt;br&gt;- quente: bool&lt;br&gt;- estado: estadoMaquina&lt;br&gt;- filaEspera: list&amp;lt;User *&amp;gt;&lt;br&gt;- vizinhos: list&amp;lt;Maquina *&amp;gt;&lt;br&gt;- casino: Casino&lt;br&gt;-userAtual: User&lt;/font&gt;&lt;/p&gt;" style="text;strokeColor=none;fillColor=none;align=left;verticalAlign=top;spacingLeft=4;spacingRight=4;overflow=hidden;rotatable=0;points=[[0,0.5],[1,0.5]];portConstraint=eastwest;whiteSpace=wrap;html=1;opacity=60;" vertex="1" parent="SOwEXC-4IN14rf8NVUA4-13">
          <mxGeometry y="26" width="360" height="224" as="geometry" />
        </mxCell>
        <mxCell id="SOwEXC-4IN14rf8NVUA4-15" value="" style="line;strokeWidth=1;fillColor=none;align=left;verticalAlign=middle;spacingTop=-1;spacingLeft=3;spacingRight=3;rotatable=0;labelPosition=right;points=[];portConstraint=eastwest;strokeColor=inherit;" parent="SOwEXC-4IN14rf8NVUA4-13" vertex="1">
          <mxGeometry y="250" width="360" height="8" as="geometry" />
        </mxCell>
        <mxCell id="SOwEXC-4IN14rf8NVUA4-16" value="&lt;p style=&quot;line-height: 100%;&quot;&gt;&lt;/p&gt;+ Maquina(int _idM, string _nome, int _x, int _y, float _premio, float _prob, string _tipo, int _aposta, Casino* casino)&lt;br&gt;+ ~Maquina()&lt;br&gt;+ Run(): virtual void&lt;br&gt;+ Memoria(): virtual void&lt;br&gt;+ informacaoMaquina(): void&lt;br&gt;+Ligar(): void&lt;br&gt;+ Desligar(): void&lt;br&gt;+ adiconarVizinho(Maquina* vizinho): void&lt;br&gt;+ saemTodos(): void&lt;br&gt;+ avariarMaquina(): void&lt;br&gt;+ removerVizinho(int id_maq): bool&lt;br&gt;+ removerVizinhoTodos(): bool&lt;br&gt;+ entrarFilaEsperar(User* user): void&lt;br&gt;+ associarUser(User* user): void&lt;br&gt;+ removerUsersFilaEspera(User* user): void&lt;br&gt;+ repararMaquina(): bool&lt;br&gt;+ rodadas(User* user): void&lt;br&gt;+ userSaiu(): void&lt;br&gt;+ getID(): int&lt;br&gt;+ getX(): int&lt;br&gt;+ getY(): int&lt;br&gt;+ getAposta(): int&lt;br&gt;+ getnAvarias(): int&lt;br&gt;+ getNJogos(): int&lt;br&gt;+ getPremio(): flaot&lt;br&gt;+ getProb(): float&lt;br&gt;+ getTemperaturaSensor(): float&lt;br&gt;+ getTipo(): string&lt;br&gt;+ getNome(): string&lt;br&gt;+ getQuente(): bool&lt;br&gt;+ getFilaEspera(): list&amp;lt;User *&amp;gt;&lt;br&gt;+ getVizinhos(): list&amp;lt;Maquina *&amp;gt;&lt;br&gt;+ getEstado(): estadoMaquina&lt;br&gt;+ getUserAtual(): User&lt;br&gt;+ setID(int _idMaquina): void&lt;br&gt;+ setX(int _X): void&lt;br&gt;+ setY(int _Y): void&lt;br&gt;+ setAposta(int _aposta): void&lt;br&gt;+ setnAvarias(int _nAvarias): void&lt;br&gt;+ setNJogos(int _nJogos): void&lt;br&gt;+ setPremio(float _premio): void&lt;br&gt;+ setProb(float _probX): void&lt;br&gt;+ setTemperaturaSensor(float _temperaturaSensor): void&lt;br&gt;+ setTipo(string _tipo): void&lt;br&gt;+ setNome(string _nome): void&lt;br&gt;+ setQuente(bool _quente): void&lt;br&gt;+ setEstado(estadoMaquina _estado): void&lt;br&gt;+ setUserAtual(User *user): void&lt;br&gt;- verificarEstao(): bool&lt;br&gt;- subirProbabilidade(): void" style="text;strokeColor=none;fillColor=none;align=left;verticalAlign=top;spacingLeft=4;spacingRight=4;overflow=hidden;rotatable=0;points=[[0,0.5],[1,0.5]];portConstraint=eastwest;whiteSpace=wrap;html=1;" parent="SOwEXC-4IN14rf8NVUA4-13" vertex="1">
          <mxGeometry y="258" width="360" height="752" as="geometry" />
        </mxCell>
        <mxCell id="v8InRVTzaZ4bghWR876y-25" value="MPoker" style="swimlane;fontStyle=1;align=center;verticalAlign=top;childLayout=stackLayout;horizontal=1;startSize=26;horizontalStack=0;resizeParent=1;resizeParentMax=0;resizeLast=0;collapsible=1;marginBottom=0;whiteSpace=wrap;html=1;" vertex="1" parent="1">
          <mxGeometry x="920" y="594" width="160" height="70" as="geometry" />
        </mxCell>
        <mxCell id="v8InRVTzaZ4bghWR876y-27" value="" style="line;strokeWidth=1;fillColor=none;align=left;verticalAlign=middle;spacingTop=-1;spacingLeft=3;spacingRight=3;rotatable=0;labelPosition=right;points=[];portConstraint=eastwest;strokeColor=inherit;" vertex="1" parent="v8InRVTzaZ4bghWR876y-25">
          <mxGeometry y="26" width="160" height="8" as="geometry" />
        </mxCell>
        <mxCell id="v8InRVTzaZ4bghWR876y-28" value="+ Run(): Void&lt;br style=&quot;border-color: var(--border-color);&quot;&gt;+ Memoria(): int" style="text;strokeColor=none;fillColor=none;align=left;verticalAlign=top;spacingLeft=4;spacingRight=4;overflow=hidden;rotatable=0;points=[[0,0.5],[1,0.5]];portConstraint=eastwest;whiteSpace=wrap;html=1;" vertex="1" parent="v8InRVTzaZ4bghWR876y-25">
          <mxGeometry y="34" width="160" height="36" as="geometry" />
        </mxCell>
        <mxCell id="v8InRVTzaZ4bghWR876y-29" value="MRoleta" style="swimlane;fontStyle=1;align=center;verticalAlign=top;childLayout=stackLayout;horizontal=1;startSize=26;horizontalStack=0;resizeParent=1;resizeParentMax=0;resizeLast=0;collapsible=1;marginBottom=0;whiteSpace=wrap;html=1;" vertex="1" parent="1">
          <mxGeometry x="920" y="760" width="160" height="70" as="geometry" />
        </mxCell>
        <mxCell id="v8InRVTzaZ4bghWR876y-31" value="" style="line;strokeWidth=1;fillColor=none;align=left;verticalAlign=middle;spacingTop=-1;spacingLeft=3;spacingRight=3;rotatable=0;labelPosition=right;points=[];portConstraint=eastwest;strokeColor=inherit;" vertex="1" parent="v8InRVTzaZ4bghWR876y-29">
          <mxGeometry y="26" width="160" height="8" as="geometry" />
        </mxCell>
        <mxCell id="v8InRVTzaZ4bghWR876y-32" value="+ Run(): Void&lt;br style=&quot;border-color: var(--border-color);&quot;&gt;+ Memoria(): int" style="text;strokeColor=none;fillColor=none;align=left;verticalAlign=top;spacingLeft=4;spacingRight=4;overflow=hidden;rotatable=0;points=[[0,0.5],[1,0.5]];portConstraint=eastwest;whiteSpace=wrap;html=1;" vertex="1" parent="v8InRVTzaZ4bghWR876y-29">
          <mxGeometry y="34" width="160" height="36" as="geometry" />
        </mxCell>
        <mxCell id="v8InRVTzaZ4bghWR876y-33" value="MBlackjack" style="swimlane;fontStyle=1;align=center;verticalAlign=top;childLayout=stackLayout;horizontal=1;startSize=26;horizontalStack=0;resizeParent=1;resizeParentMax=0;resizeLast=0;collapsible=1;marginBottom=0;whiteSpace=wrap;html=1;" vertex="1" parent="1">
          <mxGeometry x="920" y="430" width="180" height="70" as="geometry" />
        </mxCell>
        <mxCell id="v8InRVTzaZ4bghWR876y-35" value="" style="line;strokeWidth=1;fillColor=none;align=left;verticalAlign=middle;spacingTop=-1;spacingLeft=3;spacingRight=3;rotatable=0;labelPosition=right;points=[];portConstraint=eastwest;strokeColor=inherit;" vertex="1" parent="v8InRVTzaZ4bghWR876y-33">
          <mxGeometry y="26" width="180" height="8" as="geometry" />
        </mxCell>
        <mxCell id="v8InRVTzaZ4bghWR876y-36" value="+ Run(): Void&lt;br&gt;+ Memoria(): int" style="text;strokeColor=none;fillColor=none;align=left;verticalAlign=top;spacingLeft=4;spacingRight=4;overflow=hidden;rotatable=0;points=[[0,0.5],[1,0.5]];portConstraint=eastwest;whiteSpace=wrap;html=1;" vertex="1" parent="v8InRVTzaZ4bghWR876y-33">
          <mxGeometry y="34" width="180" height="36" as="geometry" />
        </mxCell>
        <mxCell id="v8InRVTzaZ4bghWR876y-37" value="MSlot" style="swimlane;fontStyle=1;align=center;verticalAlign=top;childLayout=stackLayout;horizontal=1;startSize=26;horizontalStack=0;resizeParent=1;resizeParentMax=0;resizeLast=0;collapsible=1;marginBottom=0;whiteSpace=wrap;html=1;" vertex="1" parent="1">
          <mxGeometry x="920" y="920" width="160" height="70" as="geometry" />
        </mxCell>
        <mxCell id="v8InRVTzaZ4bghWR876y-39" value="" style="line;strokeWidth=1;fillColor=none;align=left;verticalAlign=middle;spacingTop=-1;spacingLeft=3;spacingRight=3;rotatable=0;labelPosition=right;points=[];portConstraint=eastwest;strokeColor=inherit;" vertex="1" parent="v8InRVTzaZ4bghWR876y-37">
          <mxGeometry y="26" width="160" height="8" as="geometry" />
        </mxCell>
        <mxCell id="v8InRVTzaZ4bghWR876y-40" value="+ Run(): Void&lt;br style=&quot;border-color: var(--border-color);&quot;&gt;+ Memoria(): int" style="text;strokeColor=none;fillColor=none;align=left;verticalAlign=top;spacingLeft=4;spacingRight=4;overflow=hidden;rotatable=0;points=[[0,0.5],[1,0.5]];portConstraint=eastwest;whiteSpace=wrap;html=1;" vertex="1" parent="v8InRVTzaZ4bghWR876y-37">
          <mxGeometry y="34" width="160" height="36" as="geometry" />
        </mxCell>
        <mxCell id="v8InRVTzaZ4bghWR876y-43" style="edgeStyle=orthogonalEdgeStyle;rounded=0;orthogonalLoop=1;jettySize=auto;html=1;exitX=0;exitY=0.5;exitDx=0;exitDy=0;endArrow=block;endFill=0;endSize=15;startSize=15;" edge="1" parent="1" target="SOwEXC-4IN14rf8NVUA4-16">
          <mxGeometry relative="1" as="geometry">
            <mxPoint x="920" y="469" as="sourcePoint" />
            <Array as="points">
              <mxPoint x="880" y="470" />
              <mxPoint x="880" y="714" />
            </Array>
          </mxGeometry>
        </mxCell>
        <mxCell id="v8InRVTzaZ4bghWR876y-44" style="edgeStyle=orthogonalEdgeStyle;rounded=0;orthogonalLoop=1;jettySize=auto;html=1;exitX=0;exitY=0.5;exitDx=0;exitDy=0;entryX=1;entryY=0.5;entryDx=0;entryDy=0;endArrow=block;endFill=0;endSize=16;startSize=15;" edge="1" parent="1" target="SOwEXC-4IN14rf8NVUA4-16">
          <mxGeometry relative="1" as="geometry">
            <mxPoint x="890" y="410" as="targetPoint" />
            <mxPoint x="920" y="633" as="sourcePoint" />
            <Array as="points">
              <mxPoint x="880" y="633" />
              <mxPoint x="880" y="714" />
            </Array>
          </mxGeometry>
        </mxCell>
        <mxCell id="v8InRVTzaZ4bghWR876y-46" style="edgeStyle=orthogonalEdgeStyle;rounded=0;orthogonalLoop=1;jettySize=auto;html=1;exitX=0;exitY=0.5;exitDx=0;exitDy=0;entryX=1;entryY=0.5;entryDx=0;entryDy=0;endArrow=block;endFill=0;startSize=15;endSize=15;" edge="1" parent="1" target="SOwEXC-4IN14rf8NVUA4-16">
          <mxGeometry relative="1" as="geometry">
            <mxPoint x="910" y="479.7142857142858" as="targetPoint" />
            <mxPoint x="920" y="799" as="sourcePoint" />
            <Array as="points">
              <mxPoint x="880" y="799" />
              <mxPoint x="880" y="714" />
            </Array>
          </mxGeometry>
        </mxCell>
        <mxCell id="v8InRVTzaZ4bghWR876y-47" style="edgeStyle=orthogonalEdgeStyle;rounded=0;orthogonalLoop=1;jettySize=auto;html=1;exitX=0;exitY=0.5;exitDx=0;exitDy=0;entryX=1;entryY=0.5;entryDx=0;entryDy=0;endArrow=block;endFill=0;startSize=15;endSize=15;" edge="1" parent="1" target="SOwEXC-4IN14rf8NVUA4-16">
          <mxGeometry relative="1" as="geometry">
            <mxPoint x="900" y="649.7142857142858" as="targetPoint" />
            <mxPoint x="920" y="958.9999999999998" as="sourcePoint" />
            <Array as="points">
              <mxPoint x="880" y="959" />
              <mxPoint x="880" y="714" />
            </Array>
          </mxGeometry>
        </mxCell>
        <mxCell id="v8InRVTzaZ4bghWR876y-54" style="edgeStyle=orthogonalEdgeStyle;rounded=0;orthogonalLoop=1;jettySize=auto;html=1;exitX=1;exitY=0.5;exitDx=0;exitDy=0;entryX=0;entryY=0.388;entryDx=0;entryDy=0;entryPerimeter=0;endArrow=open;endFill=0;endSize=15;" edge="1" parent="1" source="SOwEXC-4IN14rf8NVUA4-2" target="v8InRVTzaZ4bghWR876y-22">
          <mxGeometry relative="1" as="geometry" />
        </mxCell>
        <mxCell id="v8InRVTzaZ4bghWR876y-55" value="&lt;font style=&quot;font-size: 15px;&quot;&gt;1&lt;/font&gt;" style="edgeLabel;html=1;align=center;verticalAlign=middle;resizable=0;points=[];" vertex="1" connectable="0" parent="v8InRVTzaZ4bghWR876y-54">
          <mxGeometry x="-0.6504" relative="1" as="geometry">
            <mxPoint x="-6" as="offset" />
          </mxGeometry>
        </mxCell>
        <mxCell id="v8InRVTzaZ4bghWR876y-56" value="&lt;font style=&quot;font-size: 15px;&quot;&gt;N&lt;/font&gt;" style="edgeLabel;html=1;align=center;verticalAlign=middle;resizable=0;points=[];" vertex="1" connectable="0" parent="v8InRVTzaZ4bghWR876y-54">
          <mxGeometry x="0.2759" relative="1" as="geometry">
            <mxPoint x="-4" as="offset" />
          </mxGeometry>
        </mxCell>
      </root>
    </mxGraphModel>
  </diagram>
</mxfile>
